<?xml version="1.0" encoding="utf-8"?>
<!-- Svg Vector Icons : http://www.onlinewebfonts.com/icon -->
<!DOCTYPE svg PUBLIC "-//W3C//DTD SVG 1.1//EN" "http://www.w3.org/Graphics/SVG/1.1/DTD/svg11.dtd">
<svg version="1.1" xmlns="http://www.w3.org/2000/svg" xmlns:xlink="http://www.w3.org/1999/xlink" x="0px" y="0px" viewBox="0 0 256 256" enable-background="new 0 0 256 256" xml:space="preserve">
<metadata> Svg Vector Icons : http://www.onlinewebfonts.com/icon </metadata>
<g><g><path fill="#000000" d="M128,127.6c19.7,0,35.6-16,35.6-35.6c0-19.7-16-35.6-35.6-35.6c-19.7,0-35.6,16-35.6,35.6C92.4,111.6,108.3,127.6,128,127.6z M128,70.1c12,0,21.8,9.8,21.8,21.8c0,12-9.8,21.8-21.8,21.8c-12,0-21.8-9.8-21.8-21.8S116,70.1,128,70.1z"/><path fill="#000000" d="M238.1,188.9c-4.3-4-10.3-7.6-18-10.9c-11.7-4.9-26.8-8.8-44.1-11.3c9-10.9,16.3-21.6,21.8-31.7c8.4-15.5,12.6-29.9,12.6-43.1c0-12-2.2-23.3-6.5-33.6c-4.1-10-10.1-18.8-17.8-26.2C171.1,17.6,150.4,9.5,128,9.5c-22.6,0-43.2,7.8-58.2,22C62.1,38.9,56.2,47.7,52,57.7c-4.3,10.4-6.5,21.9-6.5,34.3c0,4.9,0.6,10,1.8,15.3c0,0.1,0,0.2,0,0.2c0.4,1.9,0.9,3.8,1.5,5.8c0.5,1.6,1,3.1,1.6,4.7c0,0,0,0.1,0,0.1c0.8,2.3,1.7,4.6,2.7,6.9c1.5,3.5,5.5,5.1,9,3.6c3.4-1.4,5.1-5.3,3.8-8.9c0-0.1-0.1-0.2-0.1-0.3c-0.1-0.2-0.2-0.5-0.3-0.8c-0.2-0.6-0.6-1.4-0.9-2.3c-0.6-1.3-1.1-2.7-1.3-3.2c-0.5-1.3-0.9-2.7-1.3-4c-1.8-6.1-2.7-11.9-2.7-17.2c0-40.4,28.2-68.6,68.6-68.6c39.8,0,68.6,28.9,68.6,68.6c0,41.5-53,90.4-68.6,104c-6-5.2-17.3-15.4-29-28.4c0,0,0,0-0.1-0.1c-1.4-1.6-3.6-2.6-5.9-2.4c-22.8,2.3-42.6,6.8-57.1,12.9c-7.7,3.2-13.7,6.9-18,10.9c-5.2,4.9-7.9,10.3-7.9,16c0,8.9,6.5,21.5,37.4,31.1c21.6,6.7,50.3,10.5,80.6,10.5c30.3,0,59-3.7,80.6-10.5c30.9-9.6,37.4-22.2,37.4-31.1C246,199.2,243.3,193.8,238.1,188.9z M204.5,222.8c-20.3,6.3-47.5,9.8-76.5,9.8s-56.2-3.5-76.5-9.8c-19.1-6-27.7-13.3-27.7-17.9c0-7.4,21.4-20.5,67.1-25.7c16.9,18.3,32.1,30.6,32.7,31.1c1.3,1,2.8,1.5,4.3,1.5s3.1-0.5,4.3-1.5c0.7-0.6,15.9-12.8,32.7-31.1c45.8,5.2,67.1,18.3,67.1,25.7C232.2,209.5,223.6,216.9,204.5,222.8z"/><path fill="#000000" d="M83.9,146.9c0-5.7-4.6-10.4-10.4-10.4s-10.4,4.6-10.4,10.4c0,5.7,4.6,10.4,10.4,10.4S83.9,152.6,83.9,146.9z"/></g></g>
</svg>